<svg xmlns="http://www.w3.org/2000/svg" xmlns:xlink="http://www.w3.org/1999/xlink" width="500" zoomAndPan="magnify" viewBox="0 0 375 374.999991" height="500" preserveAspectRatio="xMidYMid meet" version="1.0"><defs><clipPath id="e814fd1dd3"><path d="M 114 127 L 375 127 L 375 286.800781 L 114 286.800781 Z M 114 127 " clip-rule="nonzero"/></clipPath><clipPath id="1478148784"><path d="M 0 70.050781 L 65 70.050781 L 65 208 L 0 208 Z M 0 70.050781 " clip-rule="nonzero"/></clipPath><clipPath id="dd49583490"><path d="M 75.714844 87.300781 L 80.492188 87.300781 L 80.492188 92.078125 L 75.714844 92.078125 Z M 75.714844 87.300781 " clip-rule="nonzero"/></clipPath><clipPath id="92cffcd0a4"><path d="M 78.105469 87.300781 C 76.785156 87.300781 75.714844 88.371094 75.714844 89.691406 C 75.714844 91.007812 76.785156 92.078125 78.105469 92.078125 C 79.425781 92.078125 80.492188 91.007812 80.492188 89.691406 C 80.492188 88.371094 79.425781 87.300781 78.105469 87.300781 Z M 78.105469 87.300781 " clip-rule="nonzero"/></clipPath></defs><path fill="#ffffff" d="M 197.976562 190.71875 C 191.113281 190.71875 184.660156 188.046875 179.808594 183.195312 L 155.113281 158.5 C 138.089844 170.714844 119.960938 169.875 102.40625 155.953125 C 99.972656 154.023438 99.5625 150.488281 101.492188 148.050781 C 103.421875 145.617188 106.960938 145.210938 109.394531 147.140625 C 124.238281 158.910156 137.753906 158.777344 151.925781 146.71875 C 154.15625 144.816406 157.472656 144.953125 159.546875 147.023438 L 187.761719 175.238281 C 190.492188 177.96875 194.117188 179.472656 197.976562 179.472656 C 201.835938 179.472656 205.460938 177.96875 208.191406 175.238281 C 213.824219 169.609375 213.824219 160.445312 208.191406 154.8125 L 170.695312 117.316406 C 168.5 115.121094 168.5 111.558594 170.695312 109.363281 C 172.894531 107.164062 176.453125 107.164062 178.652344 109.363281 L 216.144531 146.859375 C 226.164062 156.875 226.164062 173.175781 216.144531 183.195312 C 211.292969 188.046875 204.839844 190.71875 197.976562 190.71875 Z M 197.976562 190.71875 " fill-opacity="1" fill-rule="nonzero"/><g clip-path="url(#e814fd1dd3)"><path fill="#ffffff" d="M 368.984375 287.074219 L 120.089844 287.074219 C 116.984375 287.074219 114.46875 284.558594 114.46875 281.453125 L 114.46875 159.652344 C 114.46875 156.542969 116.984375 154.027344 120.089844 154.027344 C 123.199219 154.027344 125.714844 156.542969 125.714844 159.652344 L 125.714844 275.828125 L 363.359375 275.828125 L 363.359375 138.613281 L 194.324219 138.613281 C 191.214844 138.613281 188.699219 136.09375 188.699219 132.988281 C 188.699219 129.882812 191.214844 127.363281 194.324219 127.363281 L 368.984375 127.363281 C 372.089844 127.363281 374.609375 129.882812 374.609375 132.988281 L 374.609375 281.453125 C 374.609375 284.558594 372.089844 287.074219 368.984375 287.074219 Z M 368.984375 287.074219 " fill-opacity="1" fill-rule="nonzero"/></g><path fill="#ffffff" d="M 117.519531 209.175781 C 98.800781 209.175781 84.636719 203.625 75.34375 192.648438 L 58.414062 192.648438 C 55.308594 192.648438 52.789062 190.132812 52.789062 187.023438 L 52.789062 90.960938 C 52.789062 87.855469 55.308594 85.335938 58.414062 85.335938 L 60.933594 85.335938 C 69.484375 85.335938 77.90625 83.886719 85.964844 81.027344 L 93.691406 78.285156 C 102.960938 74.996094 112.648438 73.328125 122.484375 73.328125 L 165.902344 73.328125 C 188.898438 73.328125 210.519531 82.285156 226.78125 98.546875 L 257.25 129.011719 C 259.445312 131.207031 259.445312 134.769531 257.25 136.964844 C 255.050781 139.164062 251.492188 139.164062 249.292969 136.964844 L 218.828125 106.5 C 204.691406 92.363281 185.894531 84.578125 165.902344 84.578125 L 122.484375 84.578125 C 113.933594 84.578125 105.511719 86.027344 97.453125 88.886719 L 89.726562 91.628906 C 81.433594 94.570312 72.808594 96.214844 64.039062 96.53125 L 64.039062 181.402344 L 78.0625 181.402344 C 79.851562 181.402344 81.527344 182.25 82.589844 183.6875 C 90.007812 193.738281 102.21875 198.382812 119.933594 197.894531 C 123.078125 197.808594 125.628906 200.253906 125.714844 203.359375 C 125.800781 206.464844 123.351562 209.054688 120.25 209.140625 C 119.328125 209.164062 118.417969 209.175781 117.519531 209.175781 Z M 117.519531 209.175781 " fill-opacity="1" fill-rule="nonzero"/><g clip-path="url(#1478148784)"><path fill="#ffffff" d="M 58.414062 207.933594 L 6.015625 207.933594 C 2.910156 207.933594 0.390625 205.414062 0.390625 202.308594 L 0.390625 75.679688 C 0.390625 72.570312 2.910156 70.054688 6.015625 70.054688 L 58.414062 70.054688 C 61.519531 70.054688 64.039062 72.570312 64.039062 75.679688 L 64.039062 202.308594 C 64.039062 205.414062 61.519531 207.933594 58.414062 207.933594 Z M 11.640625 196.683594 L 52.789062 196.683594 L 52.789062 81.304688 L 11.640625 81.304688 Z M 11.640625 196.683594 " fill-opacity="1" fill-rule="nonzero"/></g><path fill="#ffffff" d="M 243.992188 235.769531 C 227.949219 235.769531 214.898438 222.71875 214.898438 206.675781 C 214.898438 190.632812 227.949219 177.578125 243.992188 177.578125 C 260.035156 177.578125 273.085938 190.632812 273.085938 206.675781 C 273.085938 222.71875 260.035156 235.769531 243.992188 235.769531 Z M 243.992188 188.828125 C 234.152344 188.828125 226.148438 196.835938 226.148438 206.675781 C 226.148438 216.515625 234.152344 224.519531 243.992188 224.519531 C 253.832031 224.519531 261.839844 216.515625 261.839844 206.675781 C 261.839844 196.835938 253.832031 188.828125 243.992188 188.828125 Z M 243.992188 188.828125 " fill-opacity="1" fill-rule="nonzero"/><path fill="#ffffff" d="M 321.597656 260.875 L 168.570312 260.875 C 165.464844 260.875 162.945312 258.359375 162.945312 255.253906 C 162.945312 245.464844 154.984375 237.503906 145.199219 237.503906 C 142.09375 237.503906 139.574219 234.988281 139.574219 231.878906 L 139.574219 180.378906 C 139.574219 177.269531 142.09375 174.753906 145.199219 174.753906 C 152.992188 174.753906 159.796875 169.765625 162.132812 162.339844 C 163.066406 159.378906 166.222656 157.734375 169.183594 158.664062 C 172.148438 159.597656 173.792969 162.753906 172.863281 165.71875 C 169.621094 176.023438 161.113281 183.453125 150.824219 185.460938 L 150.824219 226.804688 C 162.308594 229.070312 171.382812 238.140625 173.648438 249.628906 L 316.519531 249.628906 C 318.785156 238.140625 327.855469 229.070312 339.34375 226.804688 L 339.34375 185.453125 C 327.855469 183.1875 318.785156 174.117188 316.519531 162.628906 L 216.375 162.628906 C 213.265625 162.628906 210.75 160.109375 210.75 157.003906 C 210.75 153.898438 213.265625 151.378906 216.375 151.378906 L 321.597656 151.378906 C 324.703125 151.378906 327.222656 153.898438 327.222656 157.003906 C 327.222656 166.789062 335.183594 174.753906 344.96875 174.753906 C 348.074219 174.753906 350.59375 177.269531 350.59375 180.378906 L 350.59375 231.878906 C 350.59375 234.988281 348.074219 237.503906 344.96875 237.503906 C 335.183594 237.503906 327.222656 245.464844 327.222656 255.253906 C 327.222656 258.359375 324.703125 260.875 321.597656 260.875 Z M 321.597656 260.875 " fill-opacity="1" fill-rule="nonzero"/><g clip-path="url(#dd49583490)"><g clip-path="url(#92cffcd0a4)"><path fill="#ffffff" d="M 75.714844 87.300781 L 80.492188 87.300781 L 80.492188 92.078125 L 75.714844 92.078125 Z M 75.714844 87.300781 " fill-opacity="1" fill-rule="nonzero"/></g></g></svg>