<svg xmlns="http://www.w3.org/2000/svg" xmlns:xlink="http://www.w3.org/1999/xlink" width="500" zoomAndPan="magnify" viewBox="0 0 375 374.999991" height="500" preserveAspectRatio="xMidYMid meet" version="1.0"><defs><clipPath id="f1306f9bf8"><path d="M 78.703125 127.90625 L 83.480469 127.90625 L 83.480469 132.683594 L 78.703125 132.683594 Z M 78.703125 127.90625 " clip-rule="nonzero"/></clipPath><clipPath id="ae20b2c151"><path d="M 81.089844 127.90625 C 79.773438 127.90625 78.703125 128.976562 78.703125 130.292969 C 78.703125 131.613281 79.773438 132.683594 81.089844 132.683594 C 82.410156 132.683594 83.480469 131.613281 83.480469 130.292969 C 83.480469 128.976562 82.410156 127.90625 81.089844 127.90625 Z M 81.089844 127.90625 " clip-rule="nonzero"/></clipPath><clipPath id="8e0e78f18a"><path d="M 0.265625 64.21875 L 374.773438 64.21875 L 374.773438 310.761719 L 0.265625 310.761719 Z M 0.265625 64.21875 " clip-rule="nonzero"/></clipPath></defs><g clip-path="url(#f1306f9bf8)"><g clip-path="url(#ae20b2c151)"><path fill="#ffffff" d="M 78.703125 127.90625 L 83.480469 127.90625 L 83.480469 132.683594 L 78.703125 132.683594 Z M 78.703125 127.90625 " fill-opacity="1" fill-rule="nonzero"/></g></g><g clip-path="url(#8e0e78f18a)"><path fill="#ffffff" d="M 31.367188 64.214844 L 343.667969 64.214844 C 351.941406 64.214844 359.800781 67.5 365.644531 73.34375 C 371.488281 79.1875 374.773438 87.050781 374.773438 95.316406 L 374.773438 279.660156 C 374.773438 287.925781 371.488281 295.789062 365.644531 301.632812 C 359.800781 307.476562 351.941406 310.761719 343.667969 310.761719 L 31.367188 310.761719 C 23.101562 310.761719 15.238281 307.476562 9.398438 301.632812 C 3.554688 295.789062 0.265625 287.925781 0.265625 279.660156 L 0.265625 95.316406 C 0.265625 87.050781 3.554688 79.1875 9.398438 73.34375 C 15.238281 67.5 23.101562 64.214844 31.367188 64.214844 Z M 343.667969 81.496094 L 31.367188 81.496094 C 27.691406 81.496094 24.210938 82.96875 21.617188 85.566406 C 19.023438 88.160156 17.554688 91.640625 17.554688 95.316406 L 17.554688 279.660156 C 17.554688 283.335938 19.023438 286.816406 21.617188 289.410156 C 24.210938 292.003906 27.691406 293.476562 31.367188 293.476562 L 343.667969 293.476562 C 347.347656 293.476562 350.828125 292.003906 353.425781 289.410156 C 356.019531 286.816406 357.492188 283.335938 357.492188 279.660156 L 357.492188 95.316406 C 357.492188 91.640625 356.019531 88.160156 353.425781 85.566406 C 350.828125 82.96875 347.347656 81.496094 343.667969 81.496094 " fill-opacity="1" fill-rule="evenodd"/></g><path fill="#ffffff" d="M 371.894531 118.339844 L 371.894531 163.824219 L 3.148438 163.824219 L 3.148438 112.582031 L 371.894531 112.582031 L 371.894531 118.339844 " fill-opacity="1" fill-rule="nonzero"/><path fill="#ffffff" d="M 64.785156 199.007812 C 68.964844 199.007812 72.988281 199.757812 76.722656 201.132812 C 77.050781 201.257812 77.378906 201.378906 77.699219 201.511719 C 76.28125 202.597656 74.929688 203.777344 73.652344 205.058594 C 66.066406 212.640625 61.835938 222.847656 61.835938 233.574219 C 61.835938 244.300781 66.066406 254.507812 73.652344 262.09375 C 74.929688 263.375 76.28125 264.554688 77.699219 265.640625 C 77.378906 265.769531 77.050781 265.894531 76.722656 266.015625 C 72.988281 267.394531 68.964844 268.144531 64.785156 268.144531 C 55.238281 268.144531 46.59375 264.273438 40.339844 258.019531 C 34.082031 251.761719 30.210938 243.121094 30.210938 233.574219 C 30.210938 224.03125 34.082031 215.386719 40.339844 209.128906 C 46.59375 202.875 55.238281 199.007812 64.785156 199.007812 " fill-opacity="1" fill-rule="nonzero"/><path fill="#ffffff" d="M 77.722656 209.128906 C 83.980469 202.875 92.625 199.007812 102.167969 199.007812 C 111.714844 199.007812 120.359375 202.875 126.613281 209.128906 C 132.867188 215.386719 136.742188 224.03125 136.742188 233.574219 C 136.742188 243.121094 132.867188 251.761719 126.613281 258.019531 C 120.359375 264.273438 111.714844 268.144531 102.167969 268.144531 C 92.625 268.144531 83.980469 264.273438 77.722656 258.019531 C 71.46875 251.761719 67.597656 243.117188 67.597656 233.574219 C 67.597656 224.03125 71.46875 215.386719 77.722656 209.128906 " fill-opacity="1" fill-rule="nonzero"/><path fill="#ffffff" d="M 168.449219 224.933594 L 205.363281 224.933594 C 209.855469 224.933594 213.496094 228.804688 213.496094 233.574219 C 213.496094 238.347656 209.855469 242.21875 205.363281 242.21875 L 168.449219 242.21875 C 163.957031 242.21875 160.308594 238.347656 160.308594 233.574219 C 160.308594 228.804688 163.957031 224.933594 168.449219 224.933594 Z M 232.746094 224.933594 L 269.65625 224.933594 C 274.148438 224.933594 277.792969 228.804688 277.792969 233.574219 C 277.792969 238.347656 274.148438 242.21875 269.65625 242.21875 L 232.746094 242.21875 C 228.25 242.21875 224.605469 238.347656 224.605469 233.574219 C 224.605469 228.804688 228.25 224.933594 232.746094 224.933594 Z M 297.035156 224.933594 L 333.945312 224.933594 C 338.445312 224.933594 342.085938 228.804688 342.085938 233.574219 C 342.085938 238.347656 338.445312 242.21875 333.945312 242.21875 L 297.035156 242.21875 C 292.542969 242.21875 288.898438 238.347656 288.898438 233.574219 C 288.898438 228.804688 292.542969 224.933594 297.035156 224.933594 " fill-opacity="1" fill-rule="evenodd"/></svg>